<?xml version="1.0" encoding="utf-8"?>
<!-- Generator: Adobe Illustrator 23.0.1, SVG Export Plug-In . SVG Version: 6.00 Build 0)  -->
<svg version="1.1" id="Layer_1" xmlns="http://www.w3.org/2000/svg" xmlns:xlink="http://www.w3.org/1999/xlink" x="0px" y="0px"
	 viewBox="0 0 83.8 9.8" style="enable-background:new 0 0 83.8 9.8;" xml:space="preserve">
<style type="text/css">
	.st0{fill:none;stroke:#39B54A;stroke-width:0.5;stroke-miterlimit:10;}
	.st1{fill:none;stroke:#000000;stroke-width:0.5;stroke-miterlimit:10;}
</style>
<title>Logo</title>
<path d="M18.7,7.9c0-0.3-0.1-0.5-0.2-0.8c-0.2-0.2-0.4-0.4-0.7-0.6c-0.4-0.2-0.9-0.4-1.4-0.5c-0.5-0.1-0.9-0.3-1.4-0.5
	c-0.3-0.1-0.5-0.3-0.7-0.6c-0.1-0.3-0.2-0.5-0.2-0.8c0-0.5,0.2-1,0.6-1.2c0.5-0.3,1.1-0.5,1.7-0.5c0.4,0,0.8,0.1,1.2,0.3
	c0.3,0.2,0.6,0.4,0.9,0.8c0.2,0.3,0.3,0.7,0.3,1.1h-0.3c0-0.5-0.2-1-0.6-1.3c-0.4-0.4-1-0.5-1.5-0.5c-0.6,0-1.1,0.1-1.6,0.4
	c-0.3,0.2-0.6,0.6-0.6,1c0,0.4,0.2,0.8,0.5,1c0.5,0.3,1.1,0.6,1.7,0.7c0.6,0.1,1.2,0.4,1.7,0.7c0.5,0.3,0.7,0.9,0.7,1.4
	c0,0.3-0.1,0.7-0.3,0.9c-0.2,0.3-0.5,0.5-0.9,0.6c-0.4,0.2-0.8,0.2-1.2,0.2c-0.5,0-0.9-0.1-1.4-0.3c-0.4-0.1-0.7-0.4-0.9-0.7
	C14,8.3,13.9,8,13.9,7.6h0.3c0,0.5,0.2,1,0.7,1.4c0.5,0.3,1.1,0.5,1.7,0.5c0.5,0,1.1-0.1,1.5-0.4C18.5,8.7,18.7,8.3,18.7,7.9z"/>
<path d="M21.3,2.9v1.4h1.2v0.3h-1.2v3.8c0,0.3,0,0.6,0.2,0.8c0.1,0.2,0.4,0.3,0.6,0.3c0.2,0,0.3,0,0.5-0.1v0.2
	c-0.2,0-0.4,0.1-0.5,0.1c-0.3,0-0.6-0.1-0.8-0.3c-0.2-0.3-0.3-0.6-0.3-1V4.5h-1V4.3h1V2.9H21.3z"/>
<path d="M23.9,6.8c0-0.5,0.1-0.9,0.3-1.4c0.2-0.4,0.5-0.7,0.8-0.9c0.4-0.2,0.8-0.3,1.2-0.3c0.9,0,1.6,0.5,2,1.3
	c0.2,0.4,0.3,0.9,0.3,1.4V7c0,0.5-0.1,0.9-0.3,1.4c-0.5,1.1-1.9,1.6-3,1.1c-0.1,0-0.1-0.1-0.2-0.1c-0.4-0.2-0.6-0.5-0.8-0.9
	C24,8,23.9,7.6,23.9,7.1L23.9,6.8z M24.2,7c0,0.4,0.1,0.8,0.3,1.2c0.2,0.3,0.4,0.6,0.7,0.9c0.3,0.2,0.7,0.3,1.1,0.3
	c0.6,0,1.1-0.3,1.4-0.7c0.4-0.5,0.6-1.1,0.6-1.8V6.8c0-0.4-0.1-0.8-0.3-1.2c-0.2-0.4-0.4-0.7-0.7-0.9c-0.3-0.2-0.7-0.3-1-0.3
	c-0.6,0-1.1,0.2-1.5,0.7c-0.4,0.5-0.6,1.1-0.6,1.7L24.2,7z"/>
<path d="M32.1,9.4c0.4,0,0.9-0.1,1.2-0.4c0.3-0.3,0.5-0.6,0.5-1.1h0.3c0,0.5-0.2,0.9-0.6,1.2c-0.4,0.3-0.9,0.5-1.4,0.5
	c-0.6,0-1.2-0.2-1.6-0.7c-0.4-0.6-0.6-1.2-0.6-2V6.8c0-0.7,0.2-1.4,0.6-1.9c0.4-0.5,1-0.7,1.6-0.7c0.5,0,1,0.2,1.4,0.5
	C33.8,5,34,5.5,34.1,6h-0.3c0-0.4-0.2-0.8-0.5-1.1c-0.3-0.3-0.8-0.5-1.2-0.4c-0.5,0-1.1,0.2-1.4,0.6c-0.4,0.5-0.5,1.1-0.5,1.8V7
	c0,0.6,0.1,1.2,0.5,1.7C31,9.2,31.6,9.4,32.1,9.4z"/>
<path d="M36.9,6.7L36.9,6.7l-0.8,0.7v2.2h-0.2V2.1h0.3v5l0.6-0.6l2.4-2.2h0.4l-2.4,2.2l2.6,3h-0.3L36.9,6.7z"/>
<path d="M46.7,6.2c0,0.6-0.1,1.3-0.4,1.8c-0.2,0.5-0.6,0.9-1,1.2c-1,0.6-2.1,0.6-3.1,0c-0.4-0.3-0.8-0.7-1-1.2
	c-0.3-0.6-0.4-1.2-0.4-1.8V5.8c0-0.6,0.1-1.3,0.4-1.8c0.4-1,1.5-1.7,2.6-1.6c0.5,0,1.1,0.1,1.5,0.4c0.4,0.3,0.8,0.7,1,1.2
	c0.3,0.6,0.4,1.2,0.4,1.8L46.7,6.2z M45.5,5.8c0-0.6-0.1-1.3-0.5-1.8c-0.5-0.7-1.5-0.8-2.2-0.3c-0.1,0.1-0.2,0.2-0.3,0.3
	C42.2,4.5,42,5.2,42,5.8v0.4c0,0.6,0.1,1.3,0.5,1.8C43,8.7,44,8.8,44.7,8.3C44.8,8.2,44.9,8.1,45,8c0.3-0.5,0.5-1.2,0.5-1.8V5.8z"/>
<path d="M50.2,8.1l1.1-3.8h1.2l-1.8,5.3h-1l-1.9-5.3h1.2L50.2,8.1z"/>
<path d="M56.1,9.7c-0.7,0-1.3-0.2-1.8-0.7c-0.5-0.5-0.7-1.2-0.7-1.9V6.9c0-0.5,0.1-1,0.3-1.4c0.2-0.4,0.5-0.8,0.9-1
	c0.4-0.2,0.8-0.3,1.2-0.3c0.6,0,1.2,0.2,1.7,0.7c0.4,0.6,0.6,1.3,0.6,2v0.5h-3.4c0,0.4,0.2,0.7,0.4,1c0.3,0.3,0.6,0.4,1,0.4
	c0.5,0,1-0.2,1.3-0.7l0.6,0.6c-0.2,0.3-0.5,0.6-0.8,0.7C56.9,9.6,56.5,9.7,56.1,9.7z M55.9,5.1c-0.3,0-0.6,0.1-0.8,0.3
	c-0.2,0.3-0.4,0.6-0.4,1H57V6.4c0-0.3-0.1-0.6-0.3-0.9C56.5,5.3,56.2,5.1,55.9,5.1z"/>
<path d="M62.4,5.4c-0.2,0-0.3,0-0.5,0c-0.5,0-0.9,0.2-1.1,0.6v3.6h-1.2V4.3h1.1v0.6C61,4.4,61.5,4.2,62,4.2c0.1,0,0.3,0,0.4,0.1
	L62.4,5.4z"/>
<path d="M64.2,9.6V5.2h-0.8V4.3h0.8V3.8c0-0.5,0.1-1,0.5-1.3C65,2.1,65.5,1.9,66,2c0.2,0,0.5,0,0.7,0.1V3c-0.2,0-0.3,0-0.5,0
	c-0.4-0.1-0.8,0.2-0.9,0.7c0,0.1,0,0.1,0,0.2v0.4h1.1v0.9h-1.1v4.4L64.2,9.6z"/>
<path d="M69.1,9.6h-1.2V2.1h1.2L69.1,9.6z"/>
<path d="M70.7,6.9c0-0.5,0.1-1,0.3-1.4c0.2-0.4,0.5-0.8,0.9-1c0.4-0.2,0.8-0.3,1.3-0.3c0.6,0,1.3,0.2,1.7,0.7
	c0.5,0.5,0.7,1.2,0.7,1.9V7c0,0.5-0.1,1-0.3,1.4c-0.2,0.4-0.5,0.8-0.9,1c-0.4,0.2-0.8,0.4-1.3,0.3c-0.7,0-1.3-0.2-1.8-0.8
	C70.9,8.4,70.6,7.7,70.7,6.9L70.7,6.9z M71.9,7c0,0.5,0.1,0.9,0.3,1.3c0.2,0.3,0.6,0.5,0.9,0.5c0.4,0,0.7-0.2,0.9-0.5
	c0.3-0.4,0.4-0.9,0.3-1.4c0-0.4-0.1-0.9-0.3-1.3c-0.2-0.3-0.6-0.5-0.9-0.5c-0.4,0-0.7,0.2-0.9,0.5C72,6,71.8,6.5,71.9,7z"/>
<path d="M81.8,7.9l0.8-3.6h1.2l-1.4,5.3h-1l-1.1-3.6l-1.1,3.6h-1l-1.4-5.3h1.2l0.9,3.6l1.1-3.6h0.9L81.8,7.9z"/>
<path class="st0" d="M0.2,9.6l3.2-4.1l3.2,2.1l3.5-5.3"/>
<path class="st0" d="M10.2,2.2l1.5,0.9l-0.4-2.7L8.9,1.4L10.2,2.2z"/>
<line class="st1" x1="0.1" y1="9.6" x2="11.6" y2="9.6"/>
<line class="st1" x1="0.2" y1="9.8" x2="0.2" y2="0.6"/>
</svg>
